<?xml version="1.0" encoding="UTF-8" standalone="no"?>
<!-- Created with Inkscape (http://www.inkscape.org/) -->

<svg
   xmlns:dc="http://purl.org/dc/elements/1.1/"
   xmlns:cc="http://creativecommons.org/ns#"
   xmlns:rdf="http://www.w3.org/1999/02/22-rdf-syntax-ns#"
   xmlns:svg="http://www.w3.org/2000/svg"
   xmlns="http://www.w3.org/2000/svg"
   xmlns:xlink="http://www.w3.org/1999/xlink"
   xmlns:sodipodi="http://sodipodi.sourceforge.net/DTD/sodipodi-0.dtd"
   xmlns:inkscape="http://www.inkscape.org/namespaces/inkscape"
   width="210mm"
   height="297mm"
   viewBox="0 0 744.09448819 1052.3622047"
   id="svg2"
   version="1.1"
   inkscape:version="0.91 r13725"
   sodipodi:docname="logos.svg">
  <defs
     id="defs4">
    <linearGradient
       inkscape:collect="always"
       id="linearGradient5634">
      <stop
         style="stop-color:#ffffff;stop-opacity:1;"
         offset="0"
         id="stop5636" />
      <stop
         style="stop-color:#ffffff;stop-opacity:0;"
         offset="1"
         id="stop5638" />
    </linearGradient>
    <linearGradient
       inkscape:collect="always"
       xlink:href="#linearGradient5634"
       id="linearGradient5642"
       x1="180.1783"
       y1="173.63289"
       x2="270.17831"
       y2="173.63289"
       gradientUnits="userSpaceOnUse"
       gradientTransform="translate(-494.62881,-82.802995)" />
    <linearGradient
       inkscape:collect="always"
       xlink:href="#linearGradient5634"
       id="linearGradient5671"
       x1="25.611038"
       y1="325.96094"
       x2="534.38898"
       y2="325.96094"
       gradientUnits="userSpaceOnUse"
       gradientTransform="matrix(0.6260026,0,0,0.99999994,-16.032563,-17.820831)" />
    <linearGradient
       inkscape:collect="always"
       xlink:href="#linearGradient5634"
       id="linearGradient5671-7"
       x1="25.611038"
       y1="325.96094"
       x2="534.38898"
       y2="325.96094"
       gradientUnits="userSpaceOnUse"
       gradientTransform="matrix(0.6260026,0,0,0.99999994,283.96743,-17.820827)" />
  </defs>
  <sodipodi:namedview
     id="base"
     pagecolor="#ffffff"
     bordercolor="#666666"
     borderopacity="1.0"
     inkscape:pageopacity="0.0"
     inkscape:pageshadow="2"
     inkscape:zoom="11.313708"
     inkscape:cx="508.99193"
     inkscape:cy="815.92759"
     inkscape:document-units="px"
     inkscape:current-layer="layer1"
     showgrid="false"
     showguides="true"
     inkscape:guide-bbox="true"
     inkscape:snap-bbox="true"
     inkscape:snap-grids="false"
     inkscape:snap-page="false"
     inkscape:snap-text-baseline="false"
     inkscape:snap-center="false"
     inkscape:snap-midpoints="false"
     inkscape:snap-smooth-nodes="false"
     inkscape:object-nodes="false"
     inkscape:snap-intersection-paths="false"
     inkscape:object-paths="false"
     inkscape:snap-bbox-midpoints="false"
     inkscape:snap-bbox-edge-midpoints="false"
     inkscape:bbox-nodes="false"
     inkscape:bbox-paths="false"
     inkscape:snap-to-guides="false"
     inkscape:snap-others="false"
     inkscape:snap-nodes="false"
     inkscape:window-width="1916"
     inkscape:window-height="1037"
     inkscape:window-x="0"
     inkscape:window-y="20"
     inkscape:window-maximized="0">
    <sodipodi:guide
       position="100,1071.94"
       orientation="1,0"
       id="guide4138"
       inkscape:label=""
       inkscape:color="rgb(0,0,255)" />
    <sodipodi:guide
       position="300,832.22044"
       orientation="1,0"
       id="guide4140"
       inkscape:label=""
       inkscape:color="rgb(0,0,255)" />
    <sodipodi:guide
       position="0,952.43802"
       orientation="0,1"
       id="guide4142"
       inkscape:label=""
       inkscape:color="rgb(0,0,255)" />
    <sodipodi:guide
       position="339.18528,754.22214"
       orientation="0,1"
       id="guide4144" />
    <sodipodi:guide
       position="280.36285,922.43802"
       orientation="0,1"
       id="guide4182"
       inkscape:label=""
       inkscape:color="rgb(0,0,255)" />
    <sodipodi:guide
       position="130,901.63178"
       orientation="1,0"
       id="guide4184"
       inkscape:label=""
       inkscape:color="rgb(0,0,255)" />
    <sodipodi:guide
       position="270,893.04481"
       orientation="1,0"
       id="guide4186"
       inkscape:label=""
       inkscape:color="rgb(0,0,255)" />
    <sodipodi:guide
       position="359.22155,784.22214"
       orientation="0,1"
       id="guide4188"
       inkscape:label=""
       inkscape:color="rgb(0,0,255)" />
    <sodipodi:guide
       position="400,835.79835"
       orientation="1,0"
       id="guide5675"
       inkscape:label=""
       inkscape:color="rgb(0,0,255)" />
    <sodipodi:guide
       position="600,840.80741"
       orientation="1,0"
       id="guide5677"
       inkscape:label=""
       inkscape:color="rgb(0,0,255)" />
    <sodipodi:guide
       position="430,1006.1066"
       orientation="1,0"
       id="guide5783"
       inkscape:label=""
       inkscape:color="rgb(0,0,255)" />
    <sodipodi:guide
       position="570,1017.5559"
       orientation="1,0"
       id="guide5785"
       inkscape:label=""
       inkscape:color="rgb(0,0,255)" />
    <sodipodi:guide
       position="573.99394,864.61484"
       orientation="0,1"
       id="guide5880" />
  </sodipodi:namedview>
  <metadata
     id="metadata7">
    <rdf:RDF>
      <cc:Work
         rdf:about="">
        <dc:format>image/svg+xml</dc:format>
        <dc:type
           rdf:resource="http://purl.org/dc/dcmitype/StillImage" />
        <dc:title></dc:title>
      </cc:Work>
    </rdf:RDF>
  </metadata>
  <g
     inkscape:label="Layer 1"
     inkscape:groupmode="layer"
     id="layer1">
    <rect
       style="fill:#0d809f;fill-opacity:0.94117647"
       id="rect4136"
       width="200.36263"
       height="198.21588"
       x="100"
       y="99.924202"
       rx="30"
       ry="30" />
    <path
       style="fill:#ffffff;fill-opacity:1"
       d="m 225.1783,123.63289 a 50,50 0 0 0 -50,50 50,50 0 0 0 50,50 50,50 0 0 0 50,-50 50,50 0 0 0 -50,-50 z m 0,5 a 45,45 0 0 1 45,45 45,45 0 0 1 -45,45 45,45 0 0 1 -45,-45 45,45 0 0 1 45,-45 z"
       id="path4152"
       inkscape:connector-curvature="0" />
    <rect
       style="fill:#ffffff;fill-opacity:1"
       id="rect4174"
       width="81.57621"
       height="14.311615"
       x="-99.886551"
       y="274.96967"
       rx="4.1007195"
       ry="5.2631578"
       transform="matrix(0.7116299,-0.70255455,0.70255455,0.7116299,0,0)" />
    <circle
       style="fill:url(#linearGradient5642);fill-opacity:1;opacity:0.642"
       id="path4190"
       cx="-269.4505"
       cy="90.829895"
       r="45"
       transform="matrix(-0.55536581,-0.83160617,0.83160617,-0.55536581,0,0)" />
    <rect
       style="fill:#ffffff;fill-opacity:1"
       id="rect4174-6"
       width="50.980888"
       height="8.9450951"
       x="-58.025036"
       y="277.35495"
       rx="2.5627365"
       ry="3.2895968"
       transform="matrix(0.70831856,-0.70589292,0.69920104,0.7149251,0,0)" />
    <ellipse
       style="opacity:0.64200003;fill:url(#linearGradient5671);fill-opacity:1"
       id="path5659"
       cx="159.24817"
       cy="308.14008"
       rx="159.24814"
       ry="84.438522" />
    <rect
       style="fill:#0d809f;fill-opacity:0.94117647"
       id="rect4136-6"
       width="200.36263"
       height="198.21588"
       x="400"
       y="93.924202"
       rx="30"
       ry="30" />
    <ellipse
       style="opacity:0.64200003;fill:url(#linearGradient5671-7);fill-opacity:1"
       id="path5659-8"
       cx="459.24817"
       cy="308.14008"
       rx="159.24814"
       ry="84.438522" />
    <path
       style="opacity:0.7;fill:#ffffff;fill-opacity:1"
       d="M 483.01758 154.33594 L 483.01758 188.54102 C 479.95711 196.67557 477.58369 203.07637 477.19336 204.0332 C 475.90214 207.19839 450.07792 264.17075 451.36914 267.33594 C 452.66036 270.50113 500.43515 267.33594 503.01758 267.33594 C 505.60001 267.33594 553.3748 270.50113 554.66602 267.33594 C 555.95723 264.17075 530.13301 207.19839 528.8418 204.0332 C 528.44485 203.06015 526.0003 196.46246 522.86133 188.12305 L 522.86133 154.33594 L 483.01758 154.33594 z "
       id="path6230" />
    <path
       style="opacity:0.308;fill:#ffffff;fill-opacity:1"
       d="m 483.01758,154.33594 39.84375,0 0,-19.14844 c 0,-0.23313 -0.0282,-0.45569 -0.0527,-0.67969 a 19.863322,6.726398 0 0 0 0.0195,-0.1875 19.863322,6.726398 0 0 0 -0.24414,-0.99414 c -0.003,-0.009 -0.003,-0.0186 -0.006,-0.0273 a 19.686554,6.726398 0 0 1 -0.002,0.01 19.863322,6.726398 0 0 0 -19.61328,-5.71289 19.863322,6.726398 0 0 0 -19.70117,5.93555 19.686554,6.726398 0 0 1 -0.008,-0.0469 c -0.0138,0.0519 -0.0204,0.10771 -0.0332,0.16015 a 19.863322,6.726398 0 0 0 -0.10156,0.49219 c -0.0589,0.33986 -0.10156,0.68689 -0.10156,1.05078 l 0,19.14844 z m 19.82031,-24.61719 a 17.340821,4.2265 0 0 1 17.33984,4.22656 17.340821,4.2265 0 0 1 -17.33984,4.22657 17.340821,4.2265 0 0 1 -17.3418,-4.22657 17.340821,4.2265 0 0 1 17.3418,-4.22656 z"
       id="rect5787"
       inkscape:connector-curvature="0" />
    <ellipse
       style="opacity:1;fill:#ffffff;fill-opacity:1;stroke-width:1.5;stroke-miterlimit:4;stroke-dasharray:none"
       id="path5924"
       cx="503.01181"
       cy="267.40198"
       rx="51.774124"
       ry="7.6013975" />
    <circle
       style="opacity:0.7;fill:#ffffff;fill-opacity:1;stroke-width:1.5;stroke-miterlimit:4;stroke-dasharray:none"
       id="path6039"
       cx="498.25"
       cy="205.3622"
       r="1.75" />
    <circle
       style="opacity:0.7;fill:#ffffff;fill-opacity:1;stroke-width:1.5;stroke-miterlimit:4;stroke-dasharray:none"
       id="path6039-2"
       cx="510.75"
       cy="222.6122"
       r="1.75" />
    <circle
       style="opacity:0.7;fill:#ffffff;fill-opacity:1;stroke-width:1.5;stroke-miterlimit:4;stroke-dasharray:none"
       id="path6039-3"
       cx="482.25"
       cy="242.3622"
       r="1.75" />
    <circle
       style="opacity:0.7;fill:#ffffff;fill-opacity:1;stroke-width:1.5;stroke-miterlimit:4;stroke-dasharray:none"
       id="path6039-7"
       cx="536.5"
       cy="256.11221"
       r="1.75" />
    <circle
       style="opacity:0.7;fill:#ffffff;fill-opacity:1;stroke-width:1.5;stroke-miterlimit:4;stroke-dasharray:none"
       id="path6039-5"
       cx="510.5"
       cy="238.3622"
       r="1.75" />
    <circle
       style="opacity:0.7;fill:#ffffff;fill-opacity:1;stroke-width:1.5;stroke-miterlimit:4;stroke-dasharray:none"
       id="path6039-9"
       cx="520"
       cy="204.6122"
       r="1" />
    <circle
       style="opacity:0.7;fill:#ffffff;fill-opacity:1;stroke-width:1.5;stroke-miterlimit:4;stroke-dasharray:none"
       id="path6039-9-2"
       cx="481.25"
       cy="228.3622"
       r="1" />
    <circle
       style="opacity:0.7;fill:#ffffff;fill-opacity:1;stroke-width:1.5;stroke-miterlimit:4;stroke-dasharray:none"
       id="path6039-9-28"
       cx="498.5"
       cy="256.86221"
       r="1" />
    <circle
       style="opacity:0.7;fill:#ffffff;fill-opacity:1;stroke-width:1.5;stroke-miterlimit:4;stroke-dasharray:none"
       id="path6039-9-9"
       cx="529.75"
       cy="259.11221"
       r="1" />
    <circle
       style="opacity:0.7;fill:#ffffff;fill-opacity:1;stroke-width:1.5;stroke-miterlimit:4;stroke-dasharray:none"
       id="path6039-9-7"
       cx="486.5"
       cy="191.3622"
       r="1" />
    <ellipse
       style="opacity:1;fill:#ffffff;fill-opacity:1;stroke-width:1.5;stroke-miterlimit:4;stroke-dasharray:none"
       id="path6113"
       cx="502.75"
       cy="154.6122"
       rx="19.75"
       ry="4.375" />
    <circle
       style="opacity:0.7;fill:#ffffff;fill-opacity:1;stroke-width:1.5;stroke-miterlimit:4;stroke-dasharray:none"
       id="path6039-9-7-3"
       cx="517"
       cy="180.8622"
       r="1" />
    <circle
       style="opacity:0.7;fill:#ffffff;fill-opacity:1;stroke-width:1.5;stroke-miterlimit:4;stroke-dasharray:none"
       id="path6039-3-6"
       cx="456.5"
       cy="260.86221"
       r="1.75" />
    <circle
       style="opacity:0.7;fill:#ffffff;fill-opacity:1;stroke-width:1.5;stroke-miterlimit:4;stroke-dasharray:none"
       id="path6039-9-7-31"
       cx="511.625"
       cy="193.1122"
       r="1" />
    <circle
       style="opacity:0.7;fill:#ffffff;fill-opacity:1;stroke-width:1.5;stroke-miterlimit:4;stroke-dasharray:none"
       id="path6039-94"
       cx="489.125"
       cy="172.7372"
       r="1.75" />
    <circle
       style="opacity:0.7;fill:#ffffff;fill-opacity:1;stroke-width:1.5;stroke-miterlimit:4;stroke-dasharray:none"
       id="path6039-78"
       cx="515"
       cy="160.2372"
       r="1.75" />
    <circle
       style="opacity:0.7;fill:#ffffff;fill-opacity:1;stroke-width:1.5;stroke-miterlimit:4;stroke-dasharray:none"
       id="path6039-9-4"
       cx="502.375"
       cy="175.3622"
       r="1" />
  </g>
</svg>
