<?xml version="1.0" encoding="UTF-8" standalone="no"?>
<!-- Created with Inkscape (http://www.inkscape.org/) -->

<svg
   xmlns:dc="http://purl.org/dc/elements/1.1/"
   xmlns:cc="http://creativecommons.org/ns#"
   xmlns:rdf="http://www.w3.org/1999/02/22-rdf-syntax-ns#"
   xmlns:svg="http://www.w3.org/2000/svg"
   xmlns="http://www.w3.org/2000/svg"
   xmlns:xlink="http://www.w3.org/1999/xlink"
   xmlns:sodipodi="http://sodipodi.sourceforge.net/DTD/sodipodi-0.dtd"
   xmlns:inkscape="http://www.inkscape.org/namespaces/inkscape"
   width="56.546783mm"
   height="55.940926mm"
   viewBox="0 0 200.36262 198.21588"
   id="svg4782"
   version="1.1"
   inkscape:version="0.91 r13725"
   sodipodi:docname="dummy.svg">
  <defs
     id="defs4784">
    <linearGradient
       inkscape:collect="always"
       xlink:href="#linearGradient5634"
       id="linearGradient4307"
       gradientUnits="userSpaceOnUse"
       gradientTransform="translate(300,256.21588)"
       x1="100.01139"
       y1="302.92035"
       x2="300.35123"
       y2="302.92035" />
    <linearGradient
       inkscape:collect="always"
       id="linearGradient5634">
      <stop
         style="stop-color:#ffffff;stop-opacity:1;"
         offset="0"
         id="stop5636" />
      <stop
         style="stop-color:#ffffff;stop-opacity:0;"
         offset="1"
         id="stop5638" />
    </linearGradient>
  </defs>
  <sodipodi:namedview
     id="base"
     pagecolor="#ffffff"
     bordercolor="#666666"
     borderopacity="1.0"
     inkscape:pageopacity="0.0"
     inkscape:pageshadow="2"
     inkscape:zoom="1.4"
     inkscape:cx="2.8402997"
     inkscape:cy="57.114609"
     inkscape:document-units="px"
     inkscape:current-layer="layer1"
     showgrid="false"
     fit-margin-top="0"
     fit-margin-left="0"
     fit-margin-right="0"
     fit-margin-bottom="0"
     inkscape:window-width="1916"
     inkscape:window-height="997"
     inkscape:window-x="0"
     inkscape:window-y="60"
     inkscape:window-maximized="0" />
  <metadata
     id="metadata4787">
    <rdf:RDF>
      <cc:Work
         rdf:about="">
        <dc:format>image/svg+xml</dc:format>
        <dc:type
           rdf:resource="http://purl.org/dc/dcmitype/StillImage" />
        <dc:title></dc:title>
      </cc:Work>
    </rdf:RDF>
  </metadata>
  <g
     inkscape:label="Layer 1"
     inkscape:groupmode="layer"
     id="layer1"
     transform="translate(-268.39007,-367.53993)">
    <g
       transform="translate(-131.60993,-30.600143)"
       id="g4705">
      <g
         id="g4701">
        <rect
           style="fill:#787878;fill-opacity:0.94117647"
           id="rect4136-60-5"
           width="200.36263"
           height="198.21588"
           x="400"
           y="398.14008"
           rx="30"
           ry="30" />
        <path
           inkscape:connector-curvature="0"
           style="opacity:0.64600004;fill:url(#linearGradient4307);fill-opacity:1"
           d="m 459.25943,521.91651 a 159.24814,84.438522 0 0 0 -59.24804,6.10547 l 0,38.33398 c 0,16.62001 13.37999,30 29.99999,30 l 140.36328,0 c 16.30785,0 29.48692,-12.88539 29.97656,-29.07031 A 159.24814,84.438522 0 0 0 459.25943,521.91651 Z"
           id="rect4136-5-8-3" />
      </g>
      <g
         id="g4532">
        <g
           id="g4412"
           transform="translate(0.18131256,11.393926)">
          <rect
             y="472.17007"
             x="430.12753"
             height="24.439608"
             width="139.74493"
             id="rect4380"
             style="opacity:1;fill:none;fill-opacity:1;stroke:#ffffff;stroke-width:1.75506246;stroke-miterlimit:4;stroke-dasharray:none;stroke-opacity:1" />
          <rect
             y="475.21921"
             x="433.354"
             height="18"
             width="90.209"
             id="rect4382"
             style="opacity:1;fill:#ffffff;fill-opacity:1;stroke:none;stroke-width:1.5;stroke-miterlimit:4;stroke-dasharray:none;stroke-opacity:1" />
        </g>
        <g
           transform="scale(1.0139029,0.98628772)"
           style="font-style:normal;font-weight:normal;font-size:20.27805901px;line-height:125%;font-family:sans-serif;letter-spacing:0px;word-spacing:0px;fill:#000000;fill-opacity:1;stroke:none;stroke-width:1px;stroke-linecap:butt;stroke-linejoin:miter;stroke-opacity:1"
           id="text4390">
          <path
             inkscape:connector-curvature="0"
             d="m 427.162,466.6041 c 0.40556,0 0.60834,0.20278 0.60834,0.60834 l 0,9.49013 c 0,0.38528 0.22306,0.60834 0.60835,0.60834 l 4.522,0 c 0.40556,0 0.60835,0.20278 0.60835,0.60834 l 0,2.27114 c 0,0.40557 -0.20279,0.60835 -0.60835,0.60835 l -8.00983,0 c -0.38528,0 -0.60834,-0.22306 -0.60834,-0.60835 l 0,-12.97795 c 0,-0.40556 0.22306,-0.60834 0.60834,-0.60834 l 2.27114,0 z"
             style="font-style:normal;font-variant:normal;font-weight:normal;font-stretch:normal;font-family:Cubano;-inkscape-font-specification:Cubano;fill:#ffffff;fill-opacity:1"
             id="path4508" />
          <path
             inkscape:connector-curvature="0"
             d="m 444.7548,471.16666 c 0,-1.33835 -0.28389,-4.92757 -5.08979,-4.92757 -4.8059,0 -5.08979,3.58922 -5.08979,4.92757 l 0,5.06951 c 0,1.33836 0.28389,4.92757 5.08979,4.92757 4.8059,0 5.08979,-3.58921 5.08979,-4.92757 l 0,-5.06951 z m -3.48782,3.99478 c 0,1.56141 -0.10139,2.51448 -1.60197,2.51448 -1.50058,0 -1.60197,-0.95307 -1.60197,-2.51448 l 0,-2.92004 c 0,-1.56141 0.10139,-2.51448 1.60197,-2.51448 1.50058,0 1.60197,0.95307 1.60197,2.51448 l 0,2.92004 z"
             style="font-style:normal;font-variant:normal;font-weight:normal;font-stretch:normal;font-family:Cubano;-inkscape-font-specification:Cubano;fill:#ffffff;fill-opacity:1"
             id="path4510" />
          <path
             inkscape:connector-curvature="0"
             d="m 446.37768,476.23617 c 0,1.33836 0.28389,4.92757 5.08979,4.92757 4.8059,0 5.0898,-3.58921 5.0898,-4.92757 l 0,-2.73753 c 0,-0.40557 -0.20278,-0.60835 -0.60834,-0.60835 l -4.05562,0 c -0.38528,0 -0.60834,0.20278 -0.60834,0.60835 l 0,1.62224 c 0,0.38528 0.22306,0.60834 0.60834,0.60834 l 1.17613,0 c 0,0.99363 -0.10139,1.9467 -1.60197,1.9467 -1.50057,0 -1.60196,-0.95307 -1.60196,-2.51448 l 0,-2.92004 c 0,-1.56141 0.10139,-2.51448 1.60196,-2.51448 1.15585,0 1.50058,0.56778 1.58169,1.54113 0.0406,0.42584 0.26362,0.60834 0.66918,0.52723 l 2.29142,-0.50695 c 0.365,-0.0811 0.54751,-0.30417 0.52723,-0.66918 -0.10139,-1.58169 -0.81112,-4.38006 -5.06952,-4.38006 -4.8059,0 -5.08979,3.58922 -5.08979,4.92757 l 0,5.06951 z"
             style="font-style:normal;font-variant:normal;font-weight:normal;font-stretch:normal;font-family:Cubano;-inkscape-font-specification:Cubano;fill:#ffffff;fill-opacity:1"
             id="path4512" />
          <path
             inkscape:connector-curvature="0"
             d="m 468.32013,471.16666 c 0,-1.33835 -0.2839,-4.92757 -5.0898,-4.92757 -4.8059,0 -5.08979,3.58922 -5.08979,4.92757 l 0,5.06951 c 0,1.33836 0.28389,4.92757 5.08979,4.92757 4.8059,0 5.0898,-3.58921 5.0898,-4.92757 l 0,-5.06951 z m -3.48783,3.99478 c 0,1.56141 -0.10139,2.51448 -1.60197,2.51448 -1.50057,0 -1.60196,-0.95307 -1.60196,-2.51448 l 0,-2.92004 c 0,-1.56141 0.10139,-2.51448 1.60196,-2.51448 1.50058,0 1.60197,0.95307 1.60197,2.51448 l 0,2.92004 z"
             style="font-style:normal;font-variant:normal;font-weight:normal;font-stretch:normal;font-family:Cubano;-inkscape-font-specification:Cubano;fill:#ffffff;fill-opacity:1"
             id="path4514" />
          <path
             inkscape:connector-curvature="0"
             d="m 476.04227,476.23617 c 0,1.33836 0.28389,4.92757 5.08979,4.92757 4.31923,0 4.9884,-2.89976 5.06951,-4.44089 0.0203,-0.30417 -0.16222,-0.52723 -0.44611,-0.58807 l -2.29142,-0.50695 c -0.40557,-0.10139 -0.73001,0.16223 -0.79085,0.58807 -0.12167,0.93279 -0.42584,1.46002 -1.54113,1.46002 -1.50058,0 -1.60197,-0.95307 -1.60197,-2.51448 l 0,-2.92004 c 0,-1.56141 0.10139,-2.51448 1.60197,-2.51448 1.09501,0 1.46002,0.52723 1.56141,1.41946 0.0608,0.42584 0.38528,0.70973 0.81112,0.62862 l 2.25087,-0.50695 c 0.28389,-0.0608 0.46639,-0.28389 0.44611,-0.56779 -0.0811,-1.56141 -0.75028,-4.46117 -5.06951,-4.46117 -4.8059,0 -5.08979,3.58922 -5.08979,4.92757 l 0,5.06951 z"
             style="font-style:normal;font-variant:normal;font-weight:normal;font-stretch:normal;font-family:Cubano;-inkscape-font-specification:Cubano;fill:#ffffff;fill-opacity:1"
             id="path4516" />
          <path
             inkscape:connector-curvature="0"
             d="m 496.14891,475.70894 c -0.0405,-0.10139 -0.0203,-0.20278 0.0608,-0.26361 1.07473,-0.77057 1.54113,-2.08864 1.54113,-3.9745 0,-3.3256 -1.46002,-4.86673 -5.06952,-4.86673 l -4.44089,0 c -0.36501,0 -0.62862,0.26361 -0.62862,0.62862 l 0,12.9374 c 0,0.365 0.26361,0.62862 0.62862,0.62862 l 2.27114,0 c 0.36501,0 0.62862,-0.26362 0.62862,-0.62862 l 0,-3.20394 c 0,-0.365 0.26362,-0.62862 0.62862,-0.62862 l 0.81112,0 c 0.0608,0 0.12167,0.0406 0.16223,0.10139 l 2.10892,4.07589 c 0.0811,0.18251 0.26361,0.2839 0.46639,0.2839 l 2.3117,0 c 0.62862,0 0.95307,-0.56779 0.66918,-1.09502 l -2.14948,-3.99478 z m -3.34588,-5.61702 c 0.97335,0 1.46002,0.12167 1.46002,1.37891 0,1.25724 -0.48667,1.37891 -1.46002,1.37891 l -1.03418,0 c -0.365,0 -0.62862,-0.26362 -0.62862,-0.62862 l 0,-1.50058 c 0,-0.365 0.26362,-0.62862 0.62862,-0.62862 l 1.03418,0 z"
             style="font-style:normal;font-variant:normal;font-weight:normal;font-stretch:normal;font-family:Cubano;-inkscape-font-specification:Cubano;fill:#ffffff;fill-opacity:1"
             id="path4518" />
          <path
             inkscape:connector-curvature="0"
             d="m 508.77707,466.6041 c 0.40556,0 0.60834,0.20278 0.60834,0.60834 l 0,2.27114 c 0,0.38528 -0.20278,0.60834 -0.60834,0.60834 l -4.90729,0 c -0.38529,0 -0.60834,0.20278 -0.60834,0.60834 l 0,0.6489 c 0,0.38528 0.22305,0.60834 0.60834,0.60834 l 3.1431,0 c 0.40556,0 0.60834,0.20278 0.60834,0.60834 l 0,2.27115 c 0,0.38528 -0.20278,0.60834 -0.60834,0.60834 l -3.1431,0 c -0.38529,0 -0.60834,0.20278 -0.60834,0.60834 l 0,0.6489 c 0,0.38528 0.22305,0.60834 0.60834,0.60834 l 4.90729,0 c 0.40556,0 0.60834,0.20278 0.60834,0.60834 l 0,2.27114 c 0,0.40557 -0.20278,0.60835 -0.60834,0.60835 l -8.51679,0 c -0.38528,0 -0.60834,-0.22306 -0.60834,-0.60835 l 0,-12.97795 c 0,-0.40556 0.22306,-0.60834 0.60834,-0.60834 l 8.51679,0 z"
             style="font-style:normal;font-variant:normal;font-weight:normal;font-stretch:normal;font-family:Cubano;-inkscape-font-specification:Cubano;fill:#ffffff;fill-opacity:1"
             id="path4520" />
          <path
             inkscape:connector-curvature="0"
             d="m 520.7744,480.10928 c 0,0.44612 -0.20278,0.68946 -0.60834,0.68946 l -2.27115,0 c -0.38528,0 -0.60834,-0.20278 -0.60834,-0.60835 l 0,-1.76419 c 0,-0.40556 -0.20278,-0.60834 -0.60834,-0.60834 l -1.74391,0 c -0.38529,0 -0.60834,0.20278 -0.60834,0.60834 l 0,1.76419 c 0,0.40557 -0.20279,0.60835 -0.60835,0.60835 l -2.27114,0 c -0.38528,0 -0.60834,-0.24334 -0.60834,-0.68946 l 0,-8.59789 c 0,-2.55504 0.40556,-5.2723 4.96812,-5.2723 4.56257,0 4.96813,2.71726 4.96813,5.2723 l 0,8.59789 z m -3.48783,-8.59789 c 0,-0.97335 -0.14194,-1.46002 -1.4803,-1.46002 -1.33835,0 -1.48029,0.48667 -1.48029,1.46002 l 0,2.2103 c 0,0.38529 0.22305,0.60835 0.60834,0.60835 l 1.74391,0 c 0.40556,-0.0203 0.60834,-0.22306 0.60834,-0.62862 l 0,-2.19003 z"
             style="font-style:normal;font-variant:normal;font-weight:normal;font-stretch:normal;font-family:Cubano;-inkscape-font-specification:Cubano;fill:#ffffff;fill-opacity:1"
             id="path4522" />
          <path
             inkscape:connector-curvature="0"
             d="m 525.55083,470.70026 c 0,-0.40556 -0.20278,-0.60834 -0.60834,-0.60834 l -2.83893,0 c -0.38529,0 -0.60834,-0.22306 -0.60834,-0.60834 l 0,-2.27114 c 0,-0.40556 0.22305,-0.60834 0.60834,-0.60834 l 10.38236,0 c 0.40556,0 0.60835,0.20278 0.60835,0.60834 l 0,2.27114 c 0,0.38528 -0.20279,0.60834 -0.60835,0.60834 l -2.83892,0 c -0.38529,0 -0.60835,0.20278 -0.60835,0.60834 l 0,9.49013 c 0,0.38529 -0.20278,0.60835 -0.60834,0.60835 l -2.27114,0 c -0.38528,0 -0.60834,-0.22306 -0.60834,-0.60835 l 0,-9.49013 z"
             style="font-style:normal;font-variant:normal;font-weight:normal;font-stretch:normal;font-family:Cubano;-inkscape-font-specification:Cubano;fill:#ffffff;fill-opacity:1"
             id="path4524" />
          <path
             inkscape:connector-curvature="0"
             d="m 537.14576,466.6041 c 0.40556,0 0.60834,0.20278 0.60834,0.60834 l 0,12.97795 c 0,0.38529 -0.20278,0.60835 -0.60834,0.60835 l -2.23058,0 c -0.38529,0 -0.60835,-0.22306 -0.60835,-0.60835 l 0,-12.97795 c 0,-0.40556 0.22306,-0.60834 0.60835,-0.60834 l 2.23058,0 z"
             style="font-style:normal;font-variant:normal;font-weight:normal;font-stretch:normal;font-family:Cubano;-inkscape-font-specification:Cubano;fill:#ffffff;fill-opacity:1"
             id="path4526" />
          <path
             inkscape:connector-curvature="0"
             d="m 549.74921,471.16666 c 0,-1.33835 -0.2839,-4.92757 -5.0898,-4.92757 -4.8059,0 -5.08979,3.58922 -5.08979,4.92757 l 0,5.06951 c 0,1.33836 0.28389,4.92757 5.08979,4.92757 4.8059,0 5.0898,-3.58921 5.0898,-4.92757 l 0,-5.06951 z m -3.48783,3.99478 c 0,1.56141 -0.10139,2.51448 -1.60197,2.51448 -1.50057,0 -1.60196,-0.95307 -1.60196,-2.51448 l 0,-2.92004 c 0,-1.56141 0.10139,-2.51448 1.60196,-2.51448 1.50058,0 1.60197,0.95307 1.60197,2.51448 l 0,2.92004 z"
             style="font-style:normal;font-variant:normal;font-weight:normal;font-stretch:normal;font-family:Cubano;-inkscape-font-specification:Cubano;fill:#ffffff;fill-opacity:1"
             id="path4528" />
          <path
             inkscape:connector-curvature="0"
             d="m 555.16408,466.6041 c 0.34473,0 0.56778,0.14194 0.70973,0.46639 l 2.75782,6.75259 c 0.0811,0.18251 0.24333,0.14195 0.24333,-0.0608 l 0,-6.54981 c 0,-0.40556 0.22306,-0.60834 0.60834,-0.60834 l 2.27115,0 c 0.40556,0 0.60834,0.20278 0.60834,0.60834 l 0,12.97795 c 0,0.38529 -0.20278,0.60835 -0.60834,0.60835 l -2.98088,0 c -0.34472,0 -0.56778,-0.14195 -0.70973,-0.4664 l -2.75782,-6.75259 c -0.0811,-0.1825 -0.24333,-0.14195 -0.24333,0.0608 l 0,6.54981 c 0,0.38529 -0.20278,0.60835 -0.60834,0.60835 l -2.27115,0 c -0.38528,0 -0.60834,-0.22306 -0.60834,-0.60835 l 0,-12.97795 c 0,-0.40556 0.22306,-0.60834 0.60834,-0.60834 l 2.98088,0 z"
             style="font-style:normal;font-variant:normal;font-weight:normal;font-stretch:normal;font-family:Cubano;-inkscape-font-specification:Cubano;fill:#ffffff;fill-opacity:1"
             id="path4530" />
        </g>
        <g
           transform="scale(1.0211377,0.97929986)"
           style="font-style:normal;font-weight:normal;font-size:20.42275429px;line-height:125%;font-family:sans-serif;letter-spacing:0px;word-spacing:0px;fill:#000000;fill-opacity:1;stroke:none;stroke-width:1px;stroke-linecap:butt;stroke-linejoin:miter;stroke-opacity:1"
           id="text4390-0">
          <path
             inkscape:connector-curvature="0"
             d="m 424.79757,528.77725 c 0.47839,0 0.71758,0.23919 0.71758,0.71758 l 0,15.30846 c 0,0.45447 -0.23919,0.71758 -0.71758,0.71758 l -2.63114,0 c -0.45447,0 -0.71759,-0.26311 -0.71759,-0.71758 l 0,-15.30846 c 0,-0.47839 0.26312,-0.71758 0.71759,-0.71758 l 2.63114,0 z"
             style="font-style:normal;font-variant:normal;font-weight:normal;font-stretch:normal;font-size:23.91946983px;font-family:Cubano;-inkscape-font-specification:Cubano;fill:#ffffff;fill-opacity:1"
             id="path4487" />
          <path
             inkscape:connector-curvature="0"
             d="m 432.12963,528.77725 c 0.40663,0 0.66975,0.16743 0.83718,0.55014 l 3.25305,7.96519 c 0.0957,0.21527 0.28704,0.16743 0.28704,-0.0718 l 0,-7.72599 c 0,-0.47839 0.26311,-0.71758 0.71758,-0.71758 l 2.67898,0 c 0.47839,0 0.71758,0.23919 0.71758,0.71758 l 0,15.30846 c 0,0.45447 -0.23919,0.71758 -0.71758,0.71758 l -3.51616,0 c -0.40663,0 -0.66975,-0.16743 -0.83718,-0.55014 l -3.25305,-7.96519 c -0.0957,-0.21527 -0.28703,-0.16743 -0.28703,0.0718 l 0,7.72599 c 0,0.45447 -0.2392,0.71758 -0.71759,0.71758 l -2.67898,0 c -0.45447,0 -0.71758,-0.26311 -0.71758,-0.71758 l 0,-15.30846 c 0,-0.47839 0.26311,-0.71758 0.71758,-0.71758 l 3.51616,0 z"
             style="font-style:normal;font-variant:normal;font-weight:normal;font-stretch:normal;font-size:23.91946983px;font-family:Cubano;-inkscape-font-specification:Cubano;fill:#ffffff;fill-opacity:1"
             id="path4489" />
          <path
             inkscape:connector-curvature="0"
             d="m 450.94454,528.77725 c -0.47839,0.0239 -0.71759,0.26311 -0.71759,0.7415 l 0,15.28454 c 0,0.45447 0.26312,0.71758 0.71759,0.71758 l 2.67898,0 c 0.47839,0 0.71758,-0.23919 0.71758,-0.71758 l 0,-3.82712 c 0,-0.47838 0.26312,-0.71758 0.71759,-0.71758 l 1.14813,0 c 4.25767,0 5.97987,-1.81788 5.97987,-5.74067 0,-3.9228 -1.7222,-5.74067 -5.97987,-5.74067 l -5.26228,0 z m 4.11415,7.36719 c -0.45447,0 -0.71759,-0.26311 -0.71759,-0.71758 l 0,-1.81788 c 0,-0.47839 0.26312,-0.71759 0.71759,-0.71759 l 1.29165,0 c 1.14813,0 1.7222,0.14352 1.7222,1.62653 0,1.48301 -0.57407,1.62652 -1.7222,1.62652 l -1.29165,0 z"
             style="font-style:normal;font-variant:normal;font-weight:normal;font-stretch:normal;font-size:23.91946983px;font-family:Cubano;-inkscape-font-specification:Cubano;fill:#ffffff;fill-opacity:1"
             id="path4491" />
          <path
             inkscape:connector-curvature="0"
             d="m 473.75175,539.51709 c -0.0478,-0.1196 -0.0239,-0.2392 0.0718,-0.31096 1.26773,-0.90894 1.81788,-2.4637 1.81788,-4.68821 0,-3.9228 -1.7222,-5.74067 -5.97987,-5.74067 l -5.23836,0 c -0.43055,0 -0.7415,0.31095 -0.7415,0.7415 l 0,15.26062 c 0,0.43055 0.31095,0.7415 0.7415,0.7415 l 2.67898,0 c 0.43055,0 0.7415,-0.31095 0.7415,-0.7415 l 0,-3.77928 c 0,-0.43055 0.31096,-0.7415 0.74151,-0.7415 l 0.95678,0 c 0.0718,0 0.14351,0.0478 0.19135,0.1196 l 2.48763,4.80781 c 0.0957,0.21528 0.31095,0.33487 0.55015,0.33487 l 2.72682,0 c 0.7415,0 1.12421,-0.66974 0.78934,-1.29165 l -2.53547,-4.71213 z m -3.94671,-6.6257 c 1.14814,0 1.7222,0.14352 1.7222,1.62653 0,1.48301 -0.57406,1.62652 -1.7222,1.62652 l -1.21989,0 c -0.43055,0 -0.74151,-0.31095 -0.74151,-0.7415 l 0,-1.77004 c 0,-0.43055 0.31096,-0.74151 0.74151,-0.74151 l 1.21989,0 z"
             style="font-style:normal;font-variant:normal;font-weight:normal;font-stretch:normal;font-size:23.91946983px;font-family:Cubano;-inkscape-font-specification:Cubano;fill:#ffffff;fill-opacity:1"
             id="path4493" />
          <path
             inkscape:connector-curvature="0"
             d="m 489.65222,534.15913 c 0,-1.57869 -0.33487,-5.81244 -6.00379,-5.81244 -5.66891,0 -6.00378,4.23375 -6.00378,5.81244 l 0,5.97986 c 0,1.57869 0.33487,5.81243 6.00378,5.81243 5.66892,0 6.00379,-4.23374 6.00379,-5.81243 l 0,-5.97986 z m -4.11415,4.71213 c 0,1.8418 -0.1196,2.96602 -1.88964,2.96602 -1.77004,0 -1.88964,-1.12422 -1.88964,-2.96602 l 0,-3.4444 c 0,-1.8418 0.1196,-2.96602 1.88964,-2.96602 1.77004,0 1.88964,1.12422 1.88964,2.96602 l 0,3.4444 z"
             style="font-style:normal;font-variant:normal;font-weight:normal;font-stretch:normal;font-size:23.91946983px;font-family:Cubano;-inkscape-font-specification:Cubano;fill:#ffffff;fill-opacity:1"
             id="path4495" />
          <path
             inkscape:connector-curvature="0"
             d="m 491.56653,540.13899 c 0,1.57869 0.33487,5.81243 6.00378,5.81243 5.66892,0 6.00379,-4.23374 6.00379,-5.81243 l 0,-3.22913 c 0,-0.47838 -0.23919,-0.71758 -0.71758,-0.71758 l -4.7839,0 c -0.45447,0 -0.71758,0.2392 -0.71758,0.71758 l 0,1.91356 c 0,0.45447 0.26311,0.71759 0.71758,0.71759 l 1.38733,0 c 0,1.17205 -0.11959,2.29627 -1.88964,2.29627 -1.77004,0 -1.88963,-1.12422 -1.88963,-2.96602 l 0,-3.4444 c 0,-1.8418 0.11959,-2.96602 1.88963,-2.96602 1.36341,0 1.77005,0.66975 1.86572,1.81788 0.0478,0.50231 0.31096,0.71759 0.78935,0.62191 l 2.7029,-0.59799 c 0.43055,-0.0957 0.64582,-0.35879 0.6219,-0.78934 -0.1196,-1.86572 -0.95678,-5.16661 -5.97987,-5.16661 -5.66891,0 -6.00378,4.23375 -6.00378,5.81244 l 0,5.97986 z"
             style="font-style:normal;font-variant:normal;font-weight:normal;font-stretch:normal;font-size:23.91946983px;font-family:Cubano;-inkscape-font-specification:Cubano;fill:#ffffff;fill-opacity:1"
             id="path4497" />
          <path
             inkscape:connector-curvature="0"
             d="m 515.75098,539.51709 c -0.0478,-0.1196 -0.0239,-0.2392 0.0718,-0.31096 1.26773,-0.90894 1.81788,-2.4637 1.81788,-4.68821 0,-3.9228 -1.7222,-5.74067 -5.97987,-5.74067 l -5.23836,0 c -0.43055,0 -0.74151,0.31095 -0.74151,0.7415 l 0,15.26062 c 0,0.43055 0.31096,0.7415 0.74151,0.7415 l 2.67898,0 c 0.43055,0 0.7415,-0.31095 0.7415,-0.7415 l 0,-3.77928 c 0,-0.43055 0.31095,-0.7415 0.7415,-0.7415 l 0.95678,0 c 0.0718,0 0.14352,0.0478 0.19136,0.1196 l 2.48762,4.80781 c 0.0957,0.21528 0.31096,0.33487 0.55015,0.33487 l 2.72682,0 c 0.7415,0 1.12422,-0.66974 0.78934,-1.29165 l -2.53546,-4.71213 z m -3.94671,-6.6257 c 1.14813,0 1.7222,0.14352 1.7222,1.62653 0,1.48301 -0.57407,1.62652 -1.7222,1.62652 l -1.2199,0 c -0.43055,0 -0.7415,-0.31095 -0.7415,-0.7415 l 0,-1.77004 c 0,-0.43055 0.31095,-0.74151 0.7415,-0.74151 l 1.2199,0 z"
             style="font-style:normal;font-variant:normal;font-weight:normal;font-stretch:normal;font-size:23.91946983px;font-family:Cubano;-inkscape-font-specification:Cubano;fill:#ffffff;fill-opacity:1"
             id="path4499" />
          <path
             inkscape:connector-curvature="0"
             d="m 530.64683,528.77725 c 0.47839,0 0.71758,0.23919 0.71758,0.71758 l 0,2.67898 c 0,0.45447 -0.23919,0.71758 -0.71758,0.71758 l -5.78851,0 c -0.45447,0 -0.71759,0.2392 -0.71759,0.71759 l 0,0.76542 c 0,0.45447 0.26312,0.71759 0.71759,0.71759 l 3.70752,0 c 0.47839,0 0.71758,0.23919 0.71758,0.71758 l 0,2.67898 c 0,0.45447 -0.23919,0.71758 -0.71758,0.71758 l -3.70752,0 c -0.45447,0 -0.71759,0.2392 -0.71759,0.71759 l 0,0.76542 c 0,0.45447 0.26312,0.71759 0.71759,0.71759 l 5.78851,0 c 0.47839,0 0.71758,0.23919 0.71758,0.71758 l 0,2.67898 c 0,0.47839 -0.23919,0.71758 -0.71758,0.71758 l -10.04618,0 c -0.45447,0 -0.71758,-0.26311 -0.71758,-0.71758 l 0,-15.30846 c 0,-0.47839 0.26311,-0.71758 0.71758,-0.71758 l 10.04618,0 z"
             style="font-style:normal;font-variant:normal;font-weight:normal;font-stretch:normal;font-size:23.91946983px;font-family:Cubano;-inkscape-font-specification:Cubano;fill:#ffffff;fill-opacity:1"
             id="path4501" />
          <path
             inkscape:connector-curvature="0"
             d="m 543.80515,534.11129 c 0.43055,-0.0957 0.64583,-0.3588 0.62191,-0.78935 -0.14352,-1.7222 -1.29166,-4.92741 -6.21907,-4.92741 -5.35796,0 -5.78851,4.23375 -5.76459,4.95133 0,5.50148 7.19976,5.04701 7.65423,7.08017 0.14352,0.64582 -0.71758,1.33949 -1.88964,1.33949 -1.12421,0 -2.00923,-0.66975 -2.10491,-1.81788 -0.0478,-0.50231 -0.31095,-0.71759 -0.78934,-0.62191 l -2.7029,0.59799 c -0.43055,0.0957 -0.64583,0.35879 -0.62191,0.78934 0.1196,1.86572 1.19598,5.16661 6.21906,5.16661 5.66892,0 6.48218,-4.23375 6.48218,-4.95133 0,-5.50148 -7.55855,-5.45364 -7.89342,-7.31936 -0.0957,-0.55015 0.47838,-1.1003 1.41124,-1.1003 1.12422,0 1.91356,0.62191 2.081,1.60261 0.0718,0.47839 0.31095,0.69366 0.78934,0.59798 l 2.72682,-0.59798 z"
             style="font-style:normal;font-variant:normal;font-weight:normal;font-stretch:normal;font-size:23.91946983px;font-family:Cubano;-inkscape-font-specification:Cubano;fill:#ffffff;fill-opacity:1"
             id="path4503" />
          <path
             inkscape:connector-curvature="0"
             d="m 557.49344,534.11129 c 0.43055,-0.0957 0.64583,-0.3588 0.62191,-0.78935 -0.14352,-1.7222 -1.29165,-4.92741 -6.21906,-4.92741 -5.35796,0 -5.78851,4.23375 -5.76459,4.95133 0,5.50148 7.19976,5.04701 7.65423,7.08017 0.14351,0.64582 -0.71759,1.33949 -1.88964,1.33949 -1.12422,0 -2.00924,-0.66975 -2.10492,-1.81788 -0.0478,-0.50231 -0.31095,-0.71759 -0.78934,-0.62191 l -2.7029,0.59799 c -0.43055,0.0957 -0.64582,0.35879 -0.6219,0.78934 0.11959,1.86572 1.19597,5.16661 6.21906,5.16661 5.66891,0 6.48217,-4.23375 6.48217,-4.95133 0,-5.50148 -7.55855,-5.45364 -7.89342,-7.31936 -0.0957,-0.55015 0.47839,-1.1003 1.41125,-1.1003 1.12421,0 1.91356,0.62191 2.08099,1.60261 0.0718,0.47839 0.31095,0.69366 0.78934,0.59798 l 2.72682,-0.59798 z"
             style="font-style:normal;font-variant:normal;font-weight:normal;font-stretch:normal;font-size:23.91946983px;font-family:Cubano;-inkscape-font-specification:Cubano;fill:#ffffff;fill-opacity:1"
             id="path4505" />
        </g>
      </g>
    </g>
  </g>
</svg>
