<?xml version="1.0" encoding="UTF-8"?>
<!DOCTYPE svg PUBLIC "-//W3C//DTD SVG 1.1//EN" "http://www.w3.org/Graphics/SVG/1.1/DTD/svg11.dtd">
<svg enable-background="new 0 0 317.323 228.185" viewBox="0 0 317.323 228.185" xml:space="preserve" xmlns="http://www.w3.org/2000/svg" xmlns:xlink="http://www.w3.org/1999/xlink"><defs>
				<path d="m87.686,60.456-7.871,37.106 22.487,5.059 7.873-36.546z" id="SVGID_8_"></path>
			<clipPath id="SVGID_9_">
				<use xlink:href="#SVGID_8_"></use>
			</clipPath><linearGradient gradientUnits="userSpaceOnUse" id="SVGID_1_" x1="173.436" x2="149.8224" y1="93.0747" y2="141.9886">
			<stop offset="0" stop-color="#b2b1b1"></stop>
			<stop offset=".1776" stop-color="#adacac"></stop>
			<stop offset=".382" stop-color="#9f9e9e"></stop>
			<stop offset=".5996" stop-color="#888"></stop>
			<stop offset=".825" stop-color="#686868"></stop>
			<stop offset="1" stop-color="#4a4a4a"></stop>
		</linearGradient><linearGradient gradientUnits="userSpaceOnUse" id="SVGID_2_" x1="217.0405" x2="213.6675" y1="129.4526" y2="136.1987">
			<stop offset="0" stop-color="#8c8b8c"></stop>
			<stop offset=".3122" stop-color="#878687"></stop>
			<stop offset=".6708" stop-color="#79797a"></stop>
			<stop offset="1" stop-color="#666667"></stop>
		</linearGradient><linearGradient gradientUnits="userSpaceOnUse" id="SVGID_3_" x1="172.814" x2="143.2965" y1="96.0737" y2="150.0487">
			<stop offset="0" stop-color="#d7d5d8"></stop>
			<stop offset=".1695" stop-color="#d2d0d3"></stop>
			<stop offset=".3646" stop-color="#c4c3c5"></stop>
			<stop offset=".5724" stop-color="#adacae"></stop>
			<stop offset=".7874" stop-color="#8d8d8e"></stop>
			<stop offset="1" stop-color="#666667"></stop>
		</linearGradient><linearGradient gradientUnits="userSpaceOnUse" id="SVGID_4_" x1="198.9634" x2="185.4692" y1="131.1528" y2="164.8883">
			<stop offset="0" stop-color="#8c8b8c"></stop>
			<stop offset=".3122" stop-color="#878687"></stop>
			<stop offset=".6708" stop-color="#79797a"></stop>
			<stop offset="1" stop-color="#666667"></stop>
		</linearGradient><linearGradient gradientUnits="userSpaceOnUse" id="SVGID_5_" x1="55.3828" x2="66.0004" y1="69.0352" y2="79.6531">
			<stop offset="0" stop-color="#d7d5d8"></stop>
			<stop offset=".1695" stop-color="#d2d0d3"></stop>
			<stop offset=".3646" stop-color="#c4c3c5"></stop>
			<stop offset=".5724" stop-color="#adacae"></stop>
			<stop offset=".7874" stop-color="#8d8d8e"></stop>
			<stop offset="1" stop-color="#666667"></stop>
		</linearGradient><linearGradient gradientUnits="userSpaceOnUse" id="SVGID_6_" x1="-13.2021" x2="79.5646" y1="57.2827" y2="101.1361">
			<stop offset="0" stop-color="#d7d5d8"></stop>
			<stop offset=".1695" stop-color="#d2d0d3"></stop>
			<stop offset=".3646" stop-color="#c4c3c5"></stop>
			<stop offset=".5724" stop-color="#adacae"></stop>
			<stop offset=".7874" stop-color="#8d8d8e"></stop>
			<stop offset="1" stop-color="#666667"></stop>
		</linearGradient><linearGradient gradientTransform="matrix(.9987,.0063,.0063,.9691,-.0562,1.2478)" gradientUnits="userSpaceOnUse" id="SVGID_7_" x1="77.0542" x2="81.6914" y1="78.1689" y2="79.4336">
			<stop offset="0" stop-color="#b2b1b1"></stop>
			<stop offset=".2117" stop-color="#adacac"></stop>
			<stop offset=".4553" stop-color="#9f9f9f"></stop>
			<stop offset=".7147" stop-color="#888"></stop>
			<stop offset=".9835" stop-color="#686869"></stop>
			<stop offset="1" stop-color="#666667"></stop>
		</linearGradient><linearGradient gradientTransform="matrix(.7157,.2747,-.2083,.7999,49.7481,-72.7089)" gradientUnits="userSpaceOnUse" id="SVGID_10_" x1="93.501" x2="108.9374">
					<stop offset="0" stop-color="#f2f2f2"></stop>
					<stop offset=".0633" stop-color="#ededed"></stop>
					<stop offset=".1362" stop-color="#dfdfdf"></stop>
					<stop offset=".2139" stop-color="#c8c8c9"></stop>
					<stop offset=".2949" stop-color="#a8a8a8"></stop>
					<stop offset=".3776" stop-color="#7f7f80"></stop>
					<stop offset=".4213" stop-color="#666667"></stop>
					<stop offset="1" stop-color="#e6e6e6"></stop>
				</linearGradient><linearGradient gradientTransform="matrix(.7157,.2747,-.2083,.7999,49.7481,-72.7089)" gradientUnits="userSpaceOnUse" id="SVGID_11_" x1="93.499" x2="108.9364">
					<stop offset="0" stop-color="#f2f2f2"></stop>
					<stop offset=".0633" stop-color="#ededed"></stop>
					<stop offset=".1362" stop-color="#dfdfdf"></stop>
					<stop offset=".2139" stop-color="#c8c8c9"></stop>
					<stop offset=".2949" stop-color="#a8a8a8"></stop>
					<stop offset=".3776" stop-color="#7f7f80"></stop>
					<stop offset=".4213" stop-color="#666667"></stop>
					<stop offset="1" stop-color="#e6e6e6"></stop>
				</linearGradient><linearGradient gradientTransform="matrix(.7157,.2747,-.2083,.7999,49.7481,-72.7089)" gradientUnits="userSpaceOnUse" id="SVGID_12_" x1="93.502" x2="108.9381">
					<stop offset="0" stop-color="#f2f2f2"></stop>
					<stop offset=".0633" stop-color="#ededed"></stop>
					<stop offset=".1362" stop-color="#dfdfdf"></stop>
					<stop offset=".2139" stop-color="#c8c8c9"></stop>
					<stop offset=".2949" stop-color="#a8a8a8"></stop>
					<stop offset=".3776" stop-color="#7f7f80"></stop>
					<stop offset=".4213" stop-color="#666667"></stop>
					<stop offset="1" stop-color="#e6e6e6"></stop>
				</linearGradient><linearGradient gradientTransform="matrix(.7157,.2747,-.2083,.7999,49.7481,-72.7089)" gradientUnits="userSpaceOnUse" id="SVGID_13_" x1="93.501" x2="108.9377">
					<stop offset="0" stop-color="#f2f2f2"></stop>
					<stop offset=".0633" stop-color="#ededed"></stop>
					<stop offset=".1362" stop-color="#dfdfdf"></stop>
					<stop offset=".2139" stop-color="#c8c8c9"></stop>
					<stop offset=".2949" stop-color="#a8a8a8"></stop>
					<stop offset=".3776" stop-color="#7f7f80"></stop>
					<stop offset=".4213" stop-color="#666667"></stop>
					<stop offset="1" stop-color="#e6e6e6"></stop>
				</linearGradient><linearGradient gradientTransform="matrix(.7157,.2747,-.2083,.7999,49.7481,-72.7089)" gradientUnits="userSpaceOnUse" id="SVGID_14_" x1="93.5015" x2="108.9382">
					<stop offset="0" stop-color="#f2f2f2"></stop>
					<stop offset=".0633" stop-color="#ededed"></stop>
					<stop offset=".1362" stop-color="#dfdfdf"></stop>
					<stop offset=".2139" stop-color="#c8c8c9"></stop>
					<stop offset=".2949" stop-color="#a8a8a8"></stop>
					<stop offset=".3776" stop-color="#7f7f80"></stop>
					<stop offset=".4213" stop-color="#666667"></stop>
					<stop offset="1" stop-color="#e6e6e6"></stop>
				</linearGradient><linearGradient gradientTransform="matrix(.7157,.2747,-.2083,.7999,49.7481,-72.7089)" gradientUnits="userSpaceOnUse" id="SVGID_15_" x1="93.5029" x2="108.9394">
					<stop offset="0" stop-color="#f2f2f2"></stop>
					<stop offset=".0633" stop-color="#ededed"></stop>
					<stop offset=".1362" stop-color="#dfdfdf"></stop>
					<stop offset=".2139" stop-color="#c8c8c9"></stop>
					<stop offset=".2949" stop-color="#a8a8a8"></stop>
					<stop offset=".3776" stop-color="#7f7f80"></stop>
					<stop offset=".4213" stop-color="#666667"></stop>
					<stop offset="1" stop-color="#e6e6e6"></stop>
				</linearGradient><linearGradient gradientUnits="userSpaceOnUse" id="SVGID_16_" x1="24.7417" x2="48.3565" y1="83.1655" y2="82.3221">
			<stop offset="0" stop-color="#c7c6c8"></stop>
			<stop offset=".2952" stop-color="#c2c1c3"></stop>
			<stop offset=".6348" stop-color="#b4b3b5"></stop>
			<stop offset=".9952" stop-color="#9d9c9e"></stop>
			<stop offset="1" stop-color="#9d9c9e"></stop>
		</linearGradient></defs>
<g id="background">
</g>

	
		
		<path d="m316.961,196.298c-1.802-9.699-9.682-14.812-10.573-15.362l-.062-.044-171.55-97.753-.102-.056c-.658-.34-16.054-8.587-17.143-34.084-.688-16.098-7.539-27.267-13.168-33.802-4.282-4.97-10.688-10.247-14.307-11.133l.051.008-.708-.313c-2.837-1.272-9.473-4.252-21.177-3.688-16.925.82-27.702,4.996-37.215,8.681-3.098,1.2-6.023,2.335-8.936,3.249-6.08,1.917-10.051,4.743-11.804,8.401-.728,1.521-.949,2.926-.949,4.063 0,1.434.351,2.448.467,2.747l.833,2.133 2.238.464c33.315,6.902 44.203,9.067 47.934,9.747 .648,1.959 2.098,6.085 3.746,8.802 .682,1.125.936,1.82 1.03,2.147-.396,2.003-1.618,8.134-3.065,15.444l-7.758,3.958-.234-.368-1.787-.345c-14.46-2.782-38.037-7.39-40.426-8.032-5.082-2.253-8.627-2.327-10.812-.191-1.513,1.478-1.901,3.672-1.014,5.739 13.131,30.554 41.523,38.039 53.116,39.842l.253.041c1.219.194 2.26.145 3.15-.033 .493.651 1.068,1.11 1.628,1.424 .523.292 1.173.465 1.85.555 1.69.337 40.336,8.013 44.148,8.586 2.313.346 3.408,1.182 3.454,1.218 .068.054.133.113.133.113l.334.225 163.773,103.013c7.995,5.865 25.877,12.488 38.004-3.469 5.718-7.522 7.954-14.899 6.648-21.927zm-37.314,5.922c0-6.355 5.171-11.523 11.526-11.523 8.394,0 9.299,7.468 9.299,10.682 0,4.41-5.244,10.684-10.143,10.684-6.589-.001-10.682-3.771-10.682-9.843zm-182.856-104.001-14.274-3.211c.575-2.716 5.453-25.714 6.099-28.755 2.604.652 12.052,3.015 14.29,3.569-.561,2.6-5.5,25.529-6.115,28.397z" fill="url(#SVGID_1_)"></path>
			<path d="m80.666,62.62h23.705v37.959h-23.705z" fill="#404040" opacity=".7" transform="matrix(.975,.2222,-.2222,.975,20.4433,-18.517)"></path>
		<path d="m275.587,203.72c0,0 9.36,4.502 16.65.368 5.468-3.103 7.549-9.238 5.581-16.93 0,0 6.87,2.866 6.87,13.374s-10.701,14.122-14.359,14.899-13.6-2.049-14.742-11.711z" fill="#666667"></path>
		
		<path d="m299.606,176.217-184.41-100.217 188.974,107.677c0,0 6.893,4.738 6.893,14.873 0,0 4.463-13.554-11.457-22.333z" fill="url(#SVGID_2_)"></path>
		<path d="m289.513,185.718c-.554-.052-1.123-.085-1.708-.085-8.698,0-15.746,7.045-15.746,15.74 0,8.693 6.206,14.056 14.899,14.056 .47,0 .938-.038 1.407-.105-7.646-.757-12.931-5.928-12.931-13.95 .001-8.132 6.164-14.822 14.079-15.656zm14.661-2.046-171.41-97.678c0,0-18.221-9.106-19.443-37.662-1.221-28.554-23.104-41.046-24.231-41.046-1.097,0-6.746-4.249-19.58-3.876 10.472.367 15.212,3.876 16.207,3.876 1.128,0 23.011,12.492 24.232,41.046 1.218,28.556 19.442,37.662 19.442,37.662l171.41,97.678c0,0 18.08,11.031 2.787,31.152-4.292,5.644-9.29,7.81-14.062,8.195 5.71.463 12.116-1.203 17.434-8.195 15.297-20.12-2.786-31.152-2.786-31.152z" fill="#dfdfdc"></path>
		
		<path d="m304.17,183.677-171.409-97.677c0,0-18.224-9.11-19.442-37.663s-23.108-41.045-24.232-41.045c-1.127,0-7.045-4.509-20.664-3.851-21.793,1.052-33.155,7.984-45.083,11.739-11.929,3.759-9.626,9.658-9.626,9.658s48.134,9.971 49.166,9.971 1.599,1.596 1.599,1.596 1.785,5.824 3.662,8.924 1.69,4.508 1.69,4.508-9.111,45.739-9.768,49.968c-.659,4.225 1.221,3.758 1.221,3.758s40.198,7.983 43.957,8.547c3.754.561 5.539,2.16 5.539,2.16l163.805,103.032c0,0 19.422,14.564 32.375-2.475 15.292-20.119-2.79-31.15-2.79-31.15zm-196.815-115.324-6.805,31.598c-.294,1.362-1.645,2.222-3.004,1.919l-17.552-3.95c-1.359-.305-2.232-1.67-1.942-3.031l6.822-32.157c.286-1.36 1.628-2.198 2.977-1.862l17.582,4.396c1.351.339 2.213,1.729 1.922,3.087zm182.975,147.079c-8.693,0-14.899-5.36-14.899-14.054s7.05-15.741 15.743-15.741 13.516,6.202 13.516,14.896c-.001,6.754-7.211,14.899-14.36,14.899z" fill="url(#SVGID_3_)"></path>
		
		<path d="m267.129,203.125c0,0 2.438-16.14 14.723-23.042l-156.421-90.645c0,0-7.309-3.146-11.877,1.421s-4.263,13.094-.51,15.428c3.758,2.335 154.085,96.838 154.085,96.838z" fill="url(#SVGID_4_)"></path>
		
		<path d="m54.64,73.853 9.839-5.02-3.058,15.539z" fill="url(#SVGID_5_)"></path>
		
		<path d="m51.922,72.495 8.833,13.916-2.462,13.18c0,0-.388,2.539-3.788,1.994s-36.219-4.944-50.165-37.38c-.733-1.715 1.795-2.078 6.552.1 1.112.508 41.03,8.19 41.03,8.19z" fill="url(#SVGID_6_)"></path>
			
		<path d="m74.39,94.72c-.086.442-.075.816.033.841l2.977.602c.107.021.264-.321.355-.765l6.876-33.998c.091-.443.077-.817-.03-.839l-2.979-.601c-.105-.021-.264.319-.354.761l-6.878,33.999z" fill="url(#SVGID_7_)"></path>
		<path d="m51.922,72.495-3.066-.59 6.099,14.069-3.022,15.177c1.254.24 2.146.368 2.573.434 3.399.545 3.788-1.994 3.788-1.994l2.462-13.18-8.834-13.916z" fill="#808080" opacity=".75"></path>
		<path d="m276.325,176.881v.03h-.003l1.594.925c-11.481,6.448-14.357,20.965-14.684,22.837l3.897,2.452s2.438-16.14 14.723-23.042l-5.527-3.202zm-13.093,23.792-.036.202 .036-.202z" fill="#666667"></path>
		<path d="m111.356,94.086c-2.089,4.582-1.294,10.346 1.691,12.2 3.755,2.335 154.086,96.839 154.086,96.839s.156-1.037.59-2.689c-6.846-4.303-150.166-94.396-153.833-96.678-2.452-1.523-3.421-5.689-2.534-9.672z" fill="#666667"></path>
		
			
			
			<g clip-path="url(#SVGID_9_)">
					
				<path d="m105.602,64.025c.141.777-.127,1.478-.593,1.562l-16.585,3.017c-.472.087-.968-.476-1.108-1.256l-.253-1.408c-.143-.775.124-1.478.593-1.563l16.582-3.014c.469-.086.965.474 1.105,1.251l.259,1.411z" fill="url(#SVGID_10_)"></path>
					
				<path d="m103.985,70.228c.143.778-.125,1.477-.593,1.563l-16.582,3.014c-.469.089-.965-.475-1.105-1.251l-.26-1.408c-.14-.778.124-1.48.596-1.566l16.582-3.017c.47-.083.965.479 1.108,1.256l.254,1.409z" fill="url(#SVGID_11_)"></path>
					
				<path d="m102.372,76.434c.141.777-.126,1.478-.598,1.564l-16.582,3.015c-.469.085-.965-.476-1.105-1.255l-.256-1.406c-.14-.78.127-1.479.596-1.567l16.582-3.015c.469-.086.965.479 1.105,1.254l.258,1.41z" fill="url(#SVGID_12_)"></path>
					
				<path d="m100.754,82.637c.14.781-.124,1.481-.593,1.564l-16.581,3.019c-.472.085-.965-.478-1.108-1.257l-.256-1.408c-.141-.777.124-1.477.592-1.563l16.583-3.015c.472-.086.968.475 1.108,1.252l.255,1.408z" fill="url(#SVGID_13_)"></path>
					
				<path d="m99.139,88.843c.143.778-.126,1.477-.596,1.562l-16.582,3.018c-.469.083-.965-.477-1.105-1.254l-.256-1.407c-.143-.782.127-1.481.593-1.566l16.584-3.017c.469-.083.962.48 1.105,1.256l.257,1.408z" fill="url(#SVGID_14_)"></path>
					
				<path d="m97.524,95.05c.14.775-.125,1.477-.594,1.563l-16.582,3.014c-.474.088-.968-.474-1.11-1.253l-.253-1.407c-.141-.779.124-1.479.592-1.568l16.583-3.013c.469-.086.964.476 1.108,1.255l.256,1.409z" fill="url(#SVGID_15_)"></path>
			</g>
		
		<path d="m87.399,9.82c-1.126,0-7.042-4.507-20.661-3.851-11.653.567-20.319,2.807-27.688,5.345 10.853,3.629 31.355.52 43.521,5.635 14.295,6.013 20.017,20.451 28.353,27.216-3.979-23.808-22.488-34.345-23.525-34.345z" fill="#f0f0f0"></path>
		
		<path d="m32.24,72.881c-9.726-1.904-17.302-6.423-17.835-6.668-4.476-2.047-6.506-1.815-6.164-.097 3.732,18.682 33.741,30.194 43.693,35.034 .118-7.613-18.619-19.943-19.694-28.269z" fill="url(#SVGID_16_)"></path>
	

</svg>
